HIERARCHY
ROOT pelvis
{
  OFFSET 0 100 0
  CHANNELS 6 Xposition Yposition Zposition Zrotation Xrotation Yrotation
  JOINT pelvis_right_femur
  {
    OFFSET -10.78128 -3.44521 -0.5502486
    CHANNELS 3 Zrotation Xrotation Yrotation
    JOINT right_femur_tibia
    {
      OFFSET -0.8047443 -44.0398 -0.1307829
      CHANNELS 3 Zrotation Xrotation Yrotation
      JOINT right_tibia_foot
      {
        OFFSET 3.006224 -47.83518 -5
        CHANNELS 3 Zrotation Xrotation Yrotation
        End Site
        {
          OFFSET 0 -5 15
        }
      }
    }
  }
  JOINT pelvis_left_femur
  {
    OFFSET 10.78128 -3.44521 -0.5502486
    CHANNELS 3 Zrotation Xrotation Yrotation
    JOINT left_femur_tibia
    {
      OFFSET 0.8047443 -44.0398 -0.1307829
      CHANNELS 3 Zrotation Xrotation Yrotation
      JOINT left_tibia_foot
      {
        OFFSET -4.370144 -48.10324 -4.275266
        CHANNELS 3 Zrotation Xrotation Yrotation
        End Site
        {
          OFFSET 0 -5 15
        }
      }
    }
  }
  JOINT pelvis_spine1
  {
    OFFSET 0 6.468898 -3.129235
    CHANNELS 3 Zrotation Xrotation Yrotation
    JOINT spine1
    {
      OFFSET 0 23.15396 4.99043
      CHANNELS 3 Zrotation Xrotation Yrotation
      JOINT spine2
      {
        OFFSET 0 20.79997 -5.064912
        CHANNELS 3 Zrotation Xrotation Yrotation
        JOINT neck
        {
          OFFSET 0 14.38658 9.616178
          CHANNELS 3 Zrotation Xrotation Yrotation
          End Site
          {
            OFFSET 0 20 0
          }
        }
      }
      JOINT right_manubrium
      {
        OFFSET -5.722621 16.35077 3.967754
        CHANNELS 3 Zrotation Xrotation Yrotation
        JOINT right_clavicle
        {
          OFFSET -13.16364 1.694482 -4.693211
          CHANNELS 3 Zrotation Xrotation Yrotation
          JOINT right_humerus
          {
            OFFSET -28.5034 -0.3100689 -2.792744
            CHANNELS 3 Zrotation Xrotation Yrotation
            JOINT right_radius
            {
              OFFSET -25.15693 0.02248979 -1.271978
              CHANNELS 3 Zrotation Xrotation Yrotation
              End Site
              {
                OFFSET -15 0 0
              }
            }
          }
        }
      }
      JOINT left_manubrium
      {
        OFFSET 5.722621 16.35077 3.967754
        CHANNELS 3 Zrotation Xrotation Yrotation
        JOINT left_clavicle
        {
          OFFSET 13.16364 1.694482 -4.693211
          CHANNELS 3 Zrotation Xrotation Yrotation
          JOINT left_humerus
          {
            OFFSET 29.39168 -1.063119 -2.237045
            CHANNELS 3 Zrotation Xrotation Yrotation
            JOINT left_radius
            {
              OFFSET 24.59957 -0.9528479 0.9047498
              CHANNELS 3 Zrotation Xrotation Yrotation
              End Site
              {
                OFFSET 15 -0 -0
              }
            }
          }
        }
      }
    }
  }
}
MOTION
Frames: 18
Frame Time: 0.0416666666667
35.64896 102.7301 237.8756 1.343897 -6.119554 2.191748 1.710055 11.49943 4.867712 -2.789067e-09 32.80452 1.464195e-09 -2.604918 -10.55474 -1.648312 -2.994759 -18.03946 -10.2094 1.120678e-09 18.06554 -1.103e-09 0.8799828 -7.164901 21.90652 -2.198699 -0.4902388 7.21661 -0.3493245 10.58666 -3.585554 2.051688 22.64288 5.453997 2.49019 -19.07489 7.481742 2.405869 -22.42421 11.53649 82.26888 27.88434 -6.402607 1.100307e-09 1.111494e-09 22.1405 -21.35473 11.52159 13.27557 3.683376 -16.28541 -3.225074 -94.46038 21.16235 26.20967 6.467873e-11 4.601321e-10 -8.339085 3.378277 10.68925 9.875295
36.80183 102.7046 242.9594 1.382189 -5.820774 2.172336 1.467337 9.278463 4.993292 -1.906346e-09 34.64572 1.061832e-09 -2.472654 -10.16565 -1.859558 -3.600264 -15.88774 -11.12997 -6.358332e-11 15.77656 -5.380937e-10 1.187128 -8.328236 22.07082 -2.428343 -0.5575143 6.925403 -0.2455554 10.42079 -3.826462 2.024287 22.73049 5.673073 2.553834 -19.34758 7.723856 2.68237 -22.16954 11.49283 82.84104 28.49711 -7.116547 1.38191e-09 1.280513e-09 21.78889 -20.93367 11.45323 13.06473 3.829244 -16.36901 -3.160202 -94.67544 21.74639 25.77456 1.337388e-12 5.67024e-10 -8.87932 3.281367 10.88172 10.1193
37.93295 102.6514 247.8897 1.434968 -5.382915 2.300888 1.198626 5.834316 5.113619 -6.00158e-10 36.97974 4.149714e-10 -2.337241 -9.569105 -2.188984 -4.382888 -12.5793 -12.36514 -1.626593e-09 12.84228 1.622678e-10 1.620252 -10.00377 22.25531 -2.733005 -0.6530864 6.486042 -0.07396191 10.20353 -4.210235 1.981927 22.86244 5.985049 2.652475 -19.76 8.064685 3.065201 -21.76421 11.43899 83.82841 29.35205 -8.337352 1.738484e-09 1.477087e-09 21.1557 -20.29983 11.36944 12.71208 4.058964 -16.57511 -3.095625 -94.9429 22.55809 25.03408 -8.23527e-11 7.00966e-10 -9.820875 3.214446 11.18329 10.38051
39.01215 102.5712 252.6371 1.454935 -4.840411 2.573435 1.051503 1.325566 5.106492 9.033297e-10 38.68979 -3.886763e-10 -2.292882 -8.749139 -2.603706 -5.099333 -8.283053 -13.5364 -3.150293e-09 10.24724 8.228457e-10 2.05737 -11.85551 22.19422 -3.003639 -0.7558538 5.902081 0.170468 9.943296 -4.704714 1.923119 22.88601 6.295107 2.752145 -20.15528 8.378828 3.432341 -21.08518 11.32165 84.725 30.15942 -9.952668 2.022289e-09 1.585582e-09 20.01925 -19.38366 11.25198 12.10894 4.341933 -16.9027 -3.071334 -94.52279 23.43007 23.67866 -1.619762e-10 8.031267e-10 -11.20272 3.292064 11.51326 10.4092
40.01721 102.4671 257.2114 1.435496 -4.290576 2.966084 1.048747 -3.523112 4.988314 2.315688e-09 39.48917 -1.171833e-09 -2.356369 -7.848835 -3.038992 -5.636222 -3.708295 -14.46804 -4.390567e-09 8.498894 1.367532e-09 2.416865 -13.5896 21.91443 -3.194612 -0.8500136 5.276883 0.45019 9.699494 -5.238092 1.859257 22.82836 6.558263 2.841714 -20.49627 8.623782 3.728459 -20.2684 11.17844 85.53369 30.80378 -11.76025 2.178211e-09 1.583464e-09 18.57798 -18.36388 11.12825 11.36896 4.638684 -17.33261 -3.098274 -93.60311 24.18843 21.94874 -2.239221e-10 8.544836e-10 -12.8319 3.517886 11.83503 10.19831
40.92765 102.3492 261.6484 1.367981 -3.799825 3.434122 1.21005 -8.217541 4.770153 3.384195e-09 39.10078 -1.757502e-09 -2.545385 -6.958231 -3.446727 -5.950051 0.6585293 -15.0431 -5.175725e-09 7.990354 1.773088e-09 2.631821 -14.98307 21.39611 -3.266873 -0.9250968 4.677356 0.7412872 9.508106 -5.758642 1.797499 22.68745 6.735599 2.908274 -20.73915 8.758323 3.906727 -19.38704 11.02778 86.158 31.19098 -13.58831 2.155766e-09 1.453333e-09 16.94213 -17.34534 11.01356 10.55393 4.918346 -17.84363 -3.185278 -92.22566 24.69741 19.97523 -2.599251e-10 8.373708e-10 -14.57558 3.900695 12.11149 9.723113
41.7191 102.2323 265.9652 1.249148 -3.350768 3.934252 1.501262 -12.72964 4.460878 4.085604e-09 37.50276 -2.105284e-09 -2.834723 -6.051166 -3.811746 -6.07822 4.817739 -15.26287 -5.548271e-09 8.557569 2.074458e-09 2.688333 -16.01314 20.57065 -3.220285 -0.9805313 4.084707 1.037244 9.326991 -6.243438 1.736153 22.38435 6.809157 2.934491 -20.81447 8.755193 3.957682 -18.37676 10.82585 86.21442 31.30212 -15.26795 1.960707e-09 1.209702e-09 15.07203 -16.25943 10.86706 9.626946 5.16327 -18.35589 -3.315659 -90.05915 24.9318 17.64096 -2.750573e-10 7.552592e-10 -16.35929 4.412412 12.29437 8.97616
42.37804 102.1247 270.2474 1.090085 -3.0368 4.414139 1.967858 -16.76678 4.118194 4.312415e-09 34.8724 -2.160391e-09 -3.273396 -5.270126 -4.135271 -6.061002 8.41186 -15.18616 -5.415765e-09 10.61603 2.245799e-09 2.601234 -16.64988 19.65611 -3.056214 -1.019967 3.600321 1.334755 9.286651 -6.716564 1.684898 22.15867 6.820403 2.961195 -20.90498 8.685275 3.905648 -17.49378 10.71926 86.6825 31.21302 -17.08278 1.567949e-09 8.611174e-10 13.22814 -15.38267 10.80715 8.762545 5.397609 -19.04704 -3.525003 -88.23146 24.832 15.47763 -2.660994e-10 6.013948e-10 -18.23996 5.093981 12.48285 8.03408
42.89718 102.039 274.5146 0.9094768 -2.776404 4.847441 2.480522 -20.4249 3.768096 4.312953e-09 31.68757 -2.079113e-09 -3.747966 -4.535709 -4.408437 -5.973775 11.63327 -14.91873 -5.042043e-09 13.22098 2.329003e-09 2.424405 -17.02157 18.62195 -2.830459 -1.047441 3.157019 1.617181 9.262623 -7.1404 1.637178 21.86423 6.770867 2.964073 -20.90003 8.540737 3.783043 -16.60384 10.60151 86.82765 30.97421 -18.70523 1.083142e-09 4.811539e-10 11.37489 -14.53769 10.73501 7.895315 5.595815 -19.70706 -3.749347 -86.14564 24.51874 13.28728 -2.504215e-10 4.166219e-10 -20.03008 5.814475 12.59885 6.991388
43.28494 101.977 278.7855 0.7310434 -2.578136 5.221564 2.984468 -23.52411 3.451233 4.178237e-09 28.41433 -1.932283e-09 -4.210351 -3.899849 -4.625768 -5.859952 14.33126 -14.55462 -4.531279e-09 15.99448 2.328147e-09 2.207309 -17.18809 17.60918 -2.583221 -1.065773 2.782717 1.866916 9.259332 -7.499736 1.595887 21.56478 6.688842 2.954204 -20.84564 8.364394 3.627048 -15.79792 10.49701 86.81413 30.667 -20.09096 5.730252e-10 1.179621e-10 9.682622 -13.79984 10.66665 7.10797 5.755524 -20.30509 -3.967587 -84.15113 24.06899 11.30355 -2.333175e-10 2.262815e-10 -21.62036 6.504083 12.66096 5.97363
43.57367 101.9335 283.1081 0.5842121 -2.504338 5.525175 3.459182 -25.59824 3.212625 3.885717e-09 25.48285 -1.730922e-09 -4.636885 -3.49796 -4.768833 -5.727804 16.05345 -14.14753 -3.879089e-09 18.83981 2.212139e-09 1.987903 -17.1192 16.83395 -2.341327 -1.073131 2.564673 2.056832 9.339623 -7.768815 1.570243 21.40547 6.602932 2.952073 -20.83429 8.208716 3.461741 -15.28297 10.48281 87.10635 30.33842 -21.22169 8.782548e-11 -1.952157e-10 8.453055 -13.37507 10.67605 6.563818 5.871643 -20.86206 -4.173813 -82.97267 23.58519 9.983117 -2.122832e-10 4.74445e-11 -22.87038 7.109216 12.71535 5.124287
43.81228 101.9023 287.528 0.496517 -2.546766 5.765967 3.844756 -26.64904 3.092903 3.565474e-09 23.52055 -1.551747e-09 -4.977808 -3.363024 -4.857311 -5.622697 16.81341 -13.86035 -3.270829e-09 21.26159 2.042006e-09 1.838228 -16.98245 16.47984 -2.164015 -1.076251 2.516161 2.180067 9.512163 -7.960867 1.563015 21.49082 6.566423 2.980307 -20.96338 8.147438 3.347827 -15.15907 10.59382 88.08029 30.09451 -22.1684 -2.774294e-10 -4.149609e-10 7.848069 -13.33384 10.79562 6.3447 5.961066 -21.38672 -4.347215 -83.07545 23.27007 9.540315 -1.925004e-10 -8.672759e-11 -23.74286 7.5664 12.82369 4.589983
44.04809 101.8784 292.077 0.4605637 -2.72206 5.935305 4.146743 -26.29986 3.035464 3.077255e-09 22.12113 -1.321731e-09 -5.228421 -3.51369 -4.842215 -5.474199 16.28932 -13.51143 -2.538041e-09 23.44414 1.74236e-09 1.69584 -16.54334 16.40482 -2.007208 -1.060861 2.651336 2.21187 9.742184 -8.004037 1.574902 21.67733 6.512389 3.002135 -21.07617 8.093921 3.22116 -15.35609 10.76641 89.03893 29.82649 -22.58278 -5.589802e-10 -5.67707e-10 7.837637 -13.63024 10.97935 6.417993 5.976233 -21.74866 -4.479744 -83.85789 22.99126 9.836948 -1.641146e-10 -1.923327e-10 -24.05519 7.853069 12.88925 4.304908
44.30482 101.8653 296.813 0.4406051 -3.05875 5.993678 4.488228 -24.64383 2.970118 2.251341e-09 20.45483 -9.620132e-10 -5.492858 -3.926719 -4.723206 -5.201106 14.51381 -12.90941 -1.361497e-09 26.26212 1.171273e-09 1.479982 -15.62294 16.43251 -1.791137 -1.019345 2.968534 2.175242 10.06953 -7.91719 1.604918 21.92124 6.393057 3.007177 -21.1319 7.983022 3.011905 -15.80925 11.00544 89.93515 29.40812 -22.57162 -8.921014e-10 -7.356586e-10 8.231388 -14.24065 11.2409 6.708051 5.918259 -22.04388 -4.622418 -85.06464 22.55892 10.67996 -1.153645e-10 -3.202568e-10 -23.97449 8.099216 12.8934 4.070749
44.60972 101.8686 301.784 0.4426317 -3.555538 5.908764 4.831863 -21.53732 2.894039 1.117211e-09 18.68772 -5.022501e-10 -5.735271 -4.620665 -4.488714 -4.77949 11.3785 -12.06344 2.624335e-10 29.49492 2.790929e-10 1.198298 -14.21522 16.5953 -1.530378 -0.9488154 3.475535 2.053916 10.47588 -7.674213 1.654677 22.2059 6.206758 2.990312 -21.10735 7.814741 2.728276 -16.53046 11.29528 90.63963 28.86709 -22.0211 -1.241598e-09 -9.027564e-10 9.092525 -15.173 11.56049 7.240812 5.774846 -22.21127 -4.757975 -86.64485 21.97128 12.09607 -4.56818e-11 -4.579111e-10 -23.3981 8.256973 12.81963 3.937673
44.97454 101.8999 306.936 0.4589089 -4.066021 5.682151 5.044007 -17.45203 2.785468 -7.480142e-11 17.07127 -4.777623e-11 -5.835087 -5.399951 -4.143809 -4.237992 7.462323 -11.04479 1.983568e-09 32.08852 -7.60227e-10 0.881995 -12.50481 16.70201 -1.272689 -0.8544635 4.025778 1.844412 10.76634 -7.248254 1.70863 22.25072 5.935391 2.91043 -20.80403 7.542872 2.392546 -17.20373 11.45036 90.00026 28.27258 -20.62487 -1.510255e-09 -1.020267e-09 10.15082 -16.06397 11.75752 7.815924 5.527779 -21.98724 -4.814545 -87.33689 21.27706 13.50004 3.193041e-11 -5.667301e-10 -22.21378 8.205582 12.55714 3.915465
45.3992 101.9604 312.3156 0.4684323 -4.662947 5.296155 5.306167 -12.88118 2.67403 -1.386197e-09 15.41898 4.187661e-10 -5.958788 -6.313557 -3.774453 -3.574631 3.05462 -9.934803 4.031281e-09 35.07761 -2.071975e-09 0.5415538 -10.64358 16.93894 -0.9969204 -0.7495427 4.669657 1.612544 11.14002 -6.795664 1.773415 22.41233 5.660927 2.843969 -20.5614 7.28332 2.042091 -18.05788 11.68004 89.79368 27.63248 -19.24224 -1.802263e-09 -1.155439e-09 11.42495 -17.16404 12.01781 8.529116 5.270721 -21.82528 -4.890225 -88.58096 20.51774 15.22949 1.211511e-10 -6.849652e-10 -20.95224 8.168429 12.32217 3.929307
45.89354 102.0529 317.8155 0.5057815 -5.147252 4.807133 5.313862 -8.145381 2.624968 -2.416577e-09 14.85602 7.838326e-10 -5.844412 -7.163035 -3.365584 -2.947299 -1.316534 -8.990979 5.466931e-09 36.27151 -3.054547e-09 0.2825911 -8.979358 17.22607 -0.8364693 -0.6478322 5.242348 1.321976 11.31066 -6.241024 1.830506 22.36586 5.396524 2.743066 -20.14295 7.029632 1.76062 -18.7724 11.74386 88.49234 27.1146 -17.27975 -1.863001e-09 -1.156784e-09 12.80901 -18.05557 12.10511 9.216263 4.966334 -21.26315 -4.837075 -89.02216 19.94192 16.81191 1.939749e-10 -7.139246e-10 -19.22861 7.84728 11.97552 4.197601
